# xmcd
#
# Track frame offsets:
#	150
#	14775
#	26314
#	40585
#	52611
#	64326
#	76286
#	88109
#	99578
#	112986
#
# Disc length: 1648 seconds
#
# Revision: 0
# Processed by: cddbd v1.5.2PL0 Copyright (c) Steve Scherf et al.
# Submitted via: audiograbber 1.83.01
#
DISCID=70066e0a
DTITLE=Johnny "Guitar" Watson - Hot Little Mamma
DYEAR=1900
DGENRE=Blues
TTITLE0=Three Hours Past Midnight
TTITLE1=Oh Babe !
TTITLE2=Gonna Hit That Highway
TTITLE3=Too Tired To Come
TTITLE4=Love To Love You
TTITLE5=Hot Little Mamma
TTITLE6=Ruben
TTITLE7=Those Lonely, Lonely Nights
TTITLE8=Someone Cares For Me
TTITLE9=So Respectable
EXTD=
EXTT0=
EXTT1=
EXTT2=
EXTT3=
EXTT4=
EXTT5=
EXTT6=
EXTT7=
EXTT8=
EXTT9=
PLAYORDER=
